<svg version="1.1" id="Layer_1" xmlns="http://www.w3.org/2000/svg" xmlns:xlink="http://www.w3.org/1999/xlink" x="0px" y="0px"
	 width="100%" viewBox="0 0 276 276" enable-background="new 0 0 276 276" xml:space="preserve">
<path fill="#FEFEFE" opacity="1.000000" stroke="none" 
	d="
M154.000000,1.000000 
	C194.926956,1.000000 235.853928,1.000000 277.000000,1.000000 
	C277.000000,41.687298 277.000000,82.374992 276.631775,123.349808 
	C269.049561,64.529099 227.488327,17.975491 169.756607,4.382079 
	C164.528793,3.151148 159.253326,2.122556 154.000000,1.000000 
z"/>
<path fill="#FEFEFE" opacity="1.000000" stroke="none" 
	d="
M0.999999,123.000000 
	C1.000000,82.406067 1.000000,41.812141 1.000000,1.000000 
	C41.687302,1.000000 82.374992,1.000000 123.352562,1.370070 
	C64.636108,8.860245 17.945532,50.552464 4.370192,108.255753 
	C3.215665,113.163177 2.121959,118.084915 0.999999,123.000000 
z"/>
<path fill="#FEFEFE" opacity="1.000000" stroke="none" 
	d="
M277.000000,155.000000 
	C277.000000,195.593933 277.000000,236.187866 277.000000,277.000000 
	C236.312698,277.000000 195.625015,277.000000 154.646255,276.629181 
	C213.391342,269.116852 260.009583,227.490601 273.630890,169.742035 
	C274.788086,164.836075 275.878540,159.914383 277.000000,155.000000 
z"/>
<path fill="#FEFEFE" opacity="1.000000" stroke="none" 
	d="
M123.000000,277.000000 
	C82.406364,277.000000 41.812733,277.000000 1.000000,277.000000 
	C1.000000,236.646042 1.000000,196.291672 1.366691,155.641235 
	C1.855608,155.996613 2.000102,156.644745 2.096897,157.299957 
	C10.691067,215.472321 51.547493,260.251404 108.252991,273.628693 
	C113.160645,274.786438 118.083961,275.877808 123.000000,277.000000 
z"/>
<path fill="#0E68A8" opacity="1.000000" stroke="none" 
	d="
M123.468658,277.000000 
	C118.083961,275.877808 113.160645,274.786438 108.252991,273.628693 
	C51.547493,260.251404 10.691067,215.472321 2.096897,157.299957 
	C2.000102,156.644745 1.855608,155.996613 1.366691,155.172577 
	C1.000000,144.645767 1.000000,134.291550 0.999999,123.468658 
	C2.121959,118.084915 3.215665,113.163177 4.370192,108.255753 
	C17.945532,50.552464 64.636108,8.860245 123.821220,1.370070 
	C133.687561,1.000000 143.375122,1.000000 153.531342,1.000000 
	C159.253326,2.122556 164.528793,3.151148 169.756607,4.382079 
	C227.488327,17.975491 269.049561,64.529099 276.631775,123.818466 
	C277.000000,134.020889 277.000000,144.041794 277.000000,154.531342 
	C275.878540,159.914383 274.788086,164.836075 273.630890,169.742035 
	C260.009583,227.490601 213.391342,269.116852 154.177597,276.629181 
	C143.979111,277.000000 133.958206,277.000000 123.468658,277.000000 
M272.402100,129.182816 
	C272.213043,126.858505 272.109955,124.523506 271.822388,122.211456 
	C262.962006,50.978130 199.112106,-0.455249 127.304398,5.779555 
	C51.564075,12.355814 -3.713492,80.952888 6.194317,156.071930 
	C16.440348,233.755325 89.885071,285.831451 166.794632,269.945892 
	C231.415833,256.598450 278.132355,194.804688 272.402100,129.182816 
z"/>
<path fill="#F9FBFC" opacity="1.000000" stroke="none" 
	d="
M272.462524,129.638901 
	C278.132355,194.804688 231.415833,256.598450 166.794632,269.945892 
	C89.885071,285.831451 16.440348,233.755325 6.194317,156.071930 
	C-3.713492,80.952888 51.564075,12.355814 127.304398,5.779555 
	C199.112106,-0.455249 262.962006,50.978130 271.822388,122.211456 
	C272.109955,124.523506 272.213043,126.858505 272.462524,129.638901 
M227.685669,223.175522 
	C254.757904,193.729935 265.821289,158.997467 259.638855,119.637619 
	C249.311157,53.887913 189.577988,9.825578 123.021271,17.866957 
	C50.802620,26.592413 1.552070,99.251785 20.801481,169.700653 
	C33.149651,214.892410 62.388725,244.892120 107.682045,256.863251 
	C153.352951,268.934204 193.497452,256.880127 227.685669,223.175522 
z"/>
<path fill="#0160A3" opacity="1.000000" stroke="none" 
	d="
M227.438782,223.430786 
	C193.497452,256.880127 153.352951,268.934204 107.682045,256.863251 
	C62.388725,244.892120 33.149651,214.892410 20.801481,169.700653 
	C1.552070,99.251785 50.802620,26.592413 123.021271,17.866957 
	C189.577988,9.825578 249.311157,53.887913 259.638855,119.637619 
	C265.821289,158.997467 254.757904,193.729935 227.438782,223.430786 
M52.005756,113.557564 
	C48.135803,125.107101 45.874676,136.914276 45.800446,149.326965 
	C55.051224,149.326965 63.794598,149.326965 72.649635,149.326965 
	C73.610176,127.112511 80.825508,108.331566 100.159019,94.446487 
	C100.159019,97.253799 100.159019,99.024704 100.159019,100.795609 
	C100.158997,138.451538 100.122101,176.107620 100.267876,213.762985 
	C100.275154,215.645554 101.450493,218.745468 102.788750,219.200729 
	C110.859169,221.945969 119.135834,224.084854 128.164764,226.660965 
	C128.164764,178.273911 128.164764,131.215134 128.164764,83.863968 
	C134.934814,83.410866 141.202087,82.991417 147.526550,82.568138 
	C147.526550,73.337151 147.526550,64.303314 147.526550,55.298687 
	C114.308578,53.649105 69.014465,65.823494 52.005756,113.557564 
M202.288452,206.820587 
	C220.255493,191.408432 228.748688,171.077316 232.887634,148.121490 
	C223.539703,148.121490 214.434952,148.121490 205.255188,148.121490 
	C199.367416,171.641861 186.713959,189.006393 161.861115,196.682999 
	C161.861115,161.719177 161.861115,127.530815 161.861115,93.330101 
	C152.354324,93.330101 143.420761,93.330101 134.228027,93.330101 
	C134.228027,137.580811 134.228027,181.612625 134.228027,225.988907 
	C159.134186,227.766144 181.935089,223.028015 202.288452,206.820587 
z"/>
<path fill="#FCFDFE" opacity="1.000000" stroke="none" 
	d="
M52.106564,113.177200 
	C69.014465,65.823494 114.308578,53.649105 147.526550,55.298687 
	C147.526550,64.303314 147.526550,73.337151 147.526550,82.568138 
	C141.202087,82.991417 134.934814,83.410866 128.164764,83.863968 
	C128.164764,131.215134 128.164764,178.273911 128.164764,226.660965 
	C119.135834,224.084854 110.859169,221.945969 102.788750,219.200729 
	C101.450493,218.745468 100.275154,215.645554 100.267876,213.762985 
	C100.122101,176.107620 100.158997,138.451538 100.159019,100.795609 
	C100.159019,99.024704 100.159019,97.253799 100.159019,94.446487 
	C80.825508,108.331566 73.610176,127.112511 72.649635,149.326965 
	C63.794598,149.326965 55.051224,149.326965 45.800446,149.326965 
	C45.874676,136.914276 48.135803,125.107101 52.106564,113.177200 
z"/>
<path fill="#FEFEFF" opacity="1.000000" stroke="none" 
	d="
M201.999237,207.027863 
	C181.935089,223.028015 159.134186,227.766144 134.228027,225.988907 
	C134.228027,181.612625 134.228027,137.580811 134.228027,93.330101 
	C143.420761,93.330101 152.354324,93.330101 161.861115,93.330101 
	C161.861115,127.530815 161.861115,161.719177 161.861115,196.682999 
	C186.713959,189.006393 199.367416,171.641861 205.255188,148.121490 
	C214.434952,148.121490 223.539703,148.121490 232.887634,148.121490 
	C228.748688,171.077316 220.255493,191.408432 201.999237,207.027863 
z"/>
</svg>